# AST/ASF file generated using VICON BodyLanguage
# -----------------------------------------------
:version 1.10
:name VICON
:units
  mass 1.0
  length 0.45
  angle deg
:documentation
   .ast/.asf automatically generated from VICON data using
   VICON BodyBuilder and BodyLanguage model FoxedUp or BRILLIANT.MOD
:root
   order TX TY TZ RX RY RZ
   axis XYZ
   position 0 0 0  
   orientation 0 0 0 
:bonedata
  begin
     id 1 
     name lhipjoint
     direction 0.624716 -0.669793 0.401383 
     length 2.38238 
     axis 0 0 0  XYZ
  end
  begin
     id 2 
     name lfemur
     direction 0.34202 -0.939693 0  
     length 6.4574  
     axis 0 0 20  XYZ
    dof rx ry rz
    limits (-160.0 20.0)
           (-70.0 70.0)
           (-60.0 70.0)
  end
  begin
     id 3 
     name ltibia
     direction 0.34202 -0.939693 0   
     length 7.68739   
     axis 0 0 20   XYZ
    dof rx
    limits (-10.0 170.0)
  end
  begin
     id 4 
     name lfoot
     direction 0.0681309 -0.187188 0.979959   
     length 2.46615   
     axis -90 7.62852e-016 20   XYZ
    dof rx rz
    limits (-45.0 90.0)
           (-70.0 20.0)
  end
  begin
     id 5 
     name ltoes
     direction 1.53566e-011 -4.21819e-011 1   
     length 1.2376   
     axis -90 7.62852e-016 20   XYZ
    dof rx
    limits (-90.0 20.0)
  end
  begin
     id 6 
     name rhipjoint
     direction -0.644473 -0.655875 0.393043   
     length 2.43293  
     axis 0 0 0  XYZ 
  end
  begin
     id 7 
     name rfemur
     direction -0.34202 -0.939693 0   
     length 6.7025   
     axis 0 0 -20   XYZ
    dof rx ry rz
    limits (-160.0 20.0)
           (-70.0 70.0)
           (-70.0 60.0)
  end
  begin
     id 8 
     name rtibia
     direction -0.34202 -0.939693 0   
     length 7.80547   
     axis 0 0 -20   XYZ
    dof rx
    limits (-10.0 170.0)
 end
 begin
     id 9 
     name rfoot
     direction -0.0756734 -0.207911 0.975216   
     length 2.40315  
     axis -90 -7.62852e-016 -20   XYZ
    dof rx rz
    limits (-45.0 90.0)
           (-20.0 70.0)
  end
  begin
     id 10 
     name rtoes
     direction -1.5353e-011 -4.21879e-011 1   
     length 1.20477   
     axis -90 -7.62852e-016 -20   XYZ
    dof rx
    limits (-90.0 20.0)
  end
  begin
     id 11 
     name lowerback
     direction 0.0160353 0.987463 -0.157037   
     length 2.18572   
     axis 0 0 0   XYZ
    dof rx ry rz
    limits (-20.0 45.0)
           (-30.0 30.0)
           (-30.0 30.0)
  end
  begin
     id 12 
     name upperback
     direction -0.00499661 0.999756 0.0215076   
     length 2.18016   
     axis 0 0 0   XYZ
    dof rx ry rz
    limits (-20.0 45.0)
           (-30.0 30.0)
           (-30.0 30.0)
  end
  begin
     id 13 
     name thorax
     direction -0.00921346 0.995333 0.0960619   
     length 2.24923   
     axis 0 0 0   XYZ
    dof rx ry rz
    limits (-20.0 45.0)
           (-30.0 30.0)
           (-30.0 30.0)
  end
  begin
     id 14 
     name lowerneck
     direction 0.0274184 0.991181 0.12965   
     length 1.70911   
     axis 0 0 0   XYZ
    dof rx ry rz
    limits (-20.0 45.0)
           (-30.0 30.0)
           (-30.0 30.0)
  end
  begin
     id 15 
     name upperneck
     direction 0.0015627 0.999959 -0.00893559   
     length 1.69312   
     axis 0 0 0   XYZ
    dof rx ry rz
    limits (-20.0 45.0)
           (-30.0 30.0)
           (-30.0 30.0)
  end
  begin
     id 16
     name head
     direction -0.00230242 0.999856 -0.0168327  
     length 1.80241  
     axis 0 0 0   XYZ
    dof rx ry rz
    limits (-20.0 45.0)
           (-30.0 30.0)
           (-30.0 30.0)
  end
  begin
     id 17 
     name lclavicle
     direction 0.955523 0.290741 -0.0494489  
     length 3.84275  
     axis 0 0 0   XYZ
    dof ry rz
    limits (-20.0 10.0)
           (0.0 20.0)
  end
  begin
     id 18 
     name lhumerus
     direction 1 -4.48967e-011 -3.18382e-028   
     length 5.17714   
     axis 180 -30 -90   XYZ
    dof rx ry rz
    limits (-60.0 90.0)
           (-90.0 90.0)
           (-90.0 90.0)
  end
  begin
     id 19
     name lradius
     direction 1 -4.48968e-011 -2.22911e-027   
     length 3.43679   
     axis 180 -30 -90   XYZ
    dof rx
    limits (-10.0 170.0)
  end
  begin
     id 20
     name lwrist
     direction 1 -4.48951e-011 -6.32245e-027   
     length 1.7184   
     axis 3.57107e-015 90 90   XYZ
    dof ry
    limits (-180.0 0.0)
 end
  begin
     id 21 
     name lhand
     direction 1 -4.48924e-011 -1.26431e-026   
     length 0.573117   
     axis 8.06912e-015 90 90   XYZ
    dof rx rz
    limits (-90.0 90.0)
           (-45.0 45.0)
  end
  begin
     id 22 
     name lfingers
     direction 1 -4.49001e-011 -2.52965e-026   
     length 0.462062   
     axis 1.61381e-014 90 90   XYZ
    dof rx
    limits (0.0 90.0)
  end
  begin
     id 23
     name lthumb
     direction 0.707107 -6.35008e-011 0.707107   
     length 0.663431   
     axis -90 45 -1.62303e-014   XYZ
    dof rx rz
    limits (-45.0 45.0)
           (-45.0 45.0)
  end
  begin
     id 24 
     name rclavicle
     direction -0.963917 0.256881 -0.0698287   
     length 3.73057  
     axis 0 0 0   XYZ 
    dof ry rz
    limits (-10.0 20.0)
           (-20.0 0.0)
  end
  begin
     id 25 
     name rhumerus
     direction -1 -4.48962e-011 -2.73982e-027  
     length 5.23908   
     axis 180 30 90   XYZ
    dof rx ry rz
    limits (-90.0 60.0)
           (-90.0 90.0)
           (-90.0 90.0)
  end
  begin
     id 26 
     name rradius
     direction -1 -4.48968e-011 -4.33218e-027   
     length 3.46485   
     axis 180 30 90   XYZ
    dof rx
    limits (-10.0 170.0)
  end
  begin
     id 27 
     name rwrist
     direction -1 -4.48989e-011 -6.32372e-027   
     length 1.73243   
     axis 3.57107e-015 -90 -90   XYZ
    dof ry
    limits (-180.0 0.0)
  end
  begin
     id 28
     name rhand
     direction -1 -4.48948e-011 -1.26448e-026   
     length 0.608752   
     axis 8.06912e-015 -90 -90   XYZ
    dof rx rz
    limits (-90.0 90.0)
           (-45.0 45.0)
  end
  begin
     id 29
     name rfingers
     direction -1 -4.48962e-011 -2.52913e-026   
     length 0.490792   
     axis 1.61381e-014 -90 -90   XYZ
    dof rx
    limits (0.0 90.0)
  end
  begin
     id 30
     name rthumb
     direction -0.707107 -6.34878e-011 0.707107   
     length 0.704682   
     axis -90 -45 1.62303e-014   XYZ
    dof rx rz
    limits (-45.0 45.0)
           (-45.0 45.0)
  end
:hierarchy
  begin
    root lhipjoint rhipjoint lowerback
    lhipjoint lfemur
    lfemur ltibia
    ltibia lfoot
    lfoot ltoes
    rhipjoint rfemur
    rfemur rtibia
    rtibia rfoot
    rfoot rtoes
    lowerback upperback
    upperback thorax
    thorax lowerneck lclavicle rclavicle
    lowerneck upperneck
    upperneck head
    lclavicle lhumerus
    lhumerus lradius
    lradius lwrist
    lwrist lhand lthumb
    lhand lfingers
    rclavicle rhumerus
    rhumerus rradius
    rradius rwrist
    rwrist rhand rthumb
    rhand rfingers
  end

#!OML:ASF G:\JayActor3\Patient Classification 1\Patient 1\Session 6\male.ASF
:FULLY-SPECIFIED
:DEGREES
299
root 5.18449 15.0124 -18.1167 35.3591 -38.8026 -6.59902
lowerback 30.151 -2.96987 0.238482
upperback 4.67806 -3.4001 3.70846
thorax -11.0865 -1.55759 5.44235
lowerneck 14.0772 -13.2644 -4.28282
upperneck -27.5149 -15.8494 18.4083
head -8.91606 -9.61279 8.83908
rclavicle -8.11041e-014 -1.27222e-014
rhumerus -43.7334 11.6139 -87.5584
rradius 73.4013
rwrist -10.4758
rhand -20.6442 -3.10813
rfingers 7.12502
rthumb 5.71786 -33.011
lclavicle -8.11041e-014 -1.27222e-014
lhumerus -52.722 -2.37414 87.3501
lradius 69.0653
lwrist 43.428
lhand -18.9433 4.11082
lfingers 7.12502
lthumb 7.3599 33.9628
rfemur -74.8948 0.276536 27.6691
rtibia 65.4105
rfoot -19.5539 -6.44818
rtoes 2.93096
lfemur -74.4679 15.1102 -32.1894
ltibia 62.9772
lfoot -22.347 4.1226
ltoes 1.35617
300
root 5.19734 15.0028 -18.122 35.7203 -38.8359 -6.63015
lowerback 30.5277 -3.06986 0.174378
upperback 4.32048 -3.52408 3.97494
thorax -10.9336 -1.65382 5.45645
lowerneck 14.0947 -13.0967 -4.60063
upperneck -27.601 -15.6623 18.547
head -8.92582 -9.51885 8.93309
rclavicle -1.74931e-014 5.88403e-014
rhumerus -43.7752 11.9728 -87.5682
rradius 73.4038
rwrist -10.6223
rhand -20.5631 -3.03926
rfingers 7.12502
rthumb 5.79619 -32.94
lclavicle -1.74931e-014 5.88403e-014
lhumerus -52.8893 -2.00138 87.4381
lradius 68.9591
lwrist 43.4976
lhand -18.7607 3.99458
lfingers 7.12502
lthumb 7.53618 33.8403
rfemur -75.3917 0.194071 27.7775
rtibia 65.4912
rfoot -19.4411 -6.25983
rtoes 3.10518
lfemur -74.989 15.0361 -32.3302
ltibia 63.0866
lfoot -22.2953 4.11169
ltoes 1.50534
301
root 5.20885 14.9941 -18.1267 36.0306 -38.8689 -6.6523
lowerback 30.7934 -3.15382 0.1112
upperback 4.33361 -3.63687 4.04117
thorax -11.0162 -1.70085 5.61616
lowerneck 14.1152 -12.9581 -4.85391
upperneck -27.6767 -15.5039 18.6696
head -8.93802 -9.44168 9.01413
rclavicle 9.85972e-014 -9.38264e-014
rhumerus -43.8126 12.2618 -87.5918
rradius 73.3649
rwrist -10.6874
rhand -20.4697 -2.94941
rfingers 7.12502
rthumb 5.88632 -32.8476
lclavicle 9.85972e-014 -9.38264e-014
lhumerus -53.0255 -1.72057 87.5098
lradius 68.8195
lwrist 43.5584
lhand -18.5375 3.87267
lfingers 7.12502
lthumb 7.7516 33.7106
rfemur -75.8291 0.127015 27.864
rtibia 65.5683
rfoot -19.3431 -6.09762
rtoes 3.26865
lfemur -75.4403 14.9526 -32.4458
ltibia 63.187
lfoot -22.2482 4.13242
ltoes 1.60599
302
root 5.21877 14.9863 -18.1307 36.2921 -38.9076 -6.66905
lowerback 31.0611 -3.21415 0.0731553
upperback 4.35321 -3.7163 4.07164
thorax -11.0972 -1.73386 5.71181
lowerneck 14.1385 -12.8622 -5.00281
upperneck -27.7482 -15.3858 18.7655
head -8.95806 -9.38927 9.07403
rclavicle -4.77083e-015 -1.59028e-014
rhumerus -43.8489 12.4405 -87.634
rradius 73.2943
rwrist -10.6703
rhand -20.367 -2.85216
rfingers 7.12502
rthumb 5.98554 -32.7476
lclavicle -4.77083e-015 -1.59028e-014
lhumerus -53.1308 -1.58266 87.5638
lradius 68.6662
lwrist 43.6433
lhand -18.3212 3.7488
lfingers 7.12502
lthumb 7.96029 33.5789
rfemur -76.206 0.0826079 27.928
rtibia 65.6427
rfoot -19.2602 -5.96317
rtoes 3.41851
lfemur -75.8246 14.8744 -32.5389
ltibia 63.2805
lfoot -22.2095 4.16196
ltoes 1.70814
303
root 5.22729 14.9791 -18.1342 36.5146 -38.9555 -6.67743
lowerback 31.3111 -3.24308 0.0733533
upperback 4.37776 -3.75015 4.05337
thorax -11.1726 -1.74798 5.71649
lowerneck 14.1734 -12.8219 -5.00617
upperneck -27.8261 -15.3173 18.8266
head -8.99476 -9.36921 9.10687
rclavicle -7.15625e-014 -2.8625e-014
rhumerus -43.8974 12.4654 -87.7018
rradius 73.2089
rwrist -10.58
rhand -20.2686 -2.75843
rfingers 7.12502
rthumb 6.08046 -32.6512
lclavicle -7.15625e-014 -2.8625e-014
lhumerus -53.2057 -1.62485 87.5906
lradius 68.5028
lwrist 43.7551
lhand -18.0895 3.61786
lfingers 7.12502
lthumb 8.18396 33.4394
rfemur -76.539 0.0595588 27.9676
rtibia 65.7171
rfoot -19.1901 -5.85369
rtoes 3.56052
lfemur -76.1595 14.8044 -32.6234
ltibia 63.3693
lfoot -22.1764 4.20389
ltoes 1.78956
304
root 5.2344 14.972 -18.1371 36.7111 -39.0181 -6.68301
lowerback 31.5359 -3.25448 0.0740571
upperback 4.40599 -3.76472 4.01728
thorax -11.2353 -1.75388 5.69302
lowerneck 14.2036 -12.8011 -4.95672
upperneck -27.8894 -15.269 18.861
head -9.03112 -9.35949 9.12208
rclavicle 0 4.85035e-014
rhumerus -43.9498 12.4469 -87.78
rradius 73.1173
rwrist -10.4497
rhand -20.1846 -2.67809
rfingers 7.12502
rthumb 6.16163 -32.5685
lclavicle 0 4.85035e-014
lhumerus -53.2628 -1.72647 87.6018
lradius 68.3408
lwrist 43.8973
lhand -17.8636 3.48828
lfingers 7.12502
lthumb 8.40193 33.3012
rfemur -76.8401 0.064068 27.9851
rtibia 65.7936
rfoot -19.1305 -5.77116
rtoes 3.6732
lfemur -76.4599 14.748 -32.7024
ltibia 63.4575
lfoot -22.1506 4.25313
ltoes 1.85988
305
root 5.24079 14.965 -18.1392 36.8855 -39.0917 -6.67901
lowerback 31.7289 -3.26041 0.0667213
upperback 4.43729 -3.7766 3.97657
thorax -11.281 -1.75883 5.66597
lowerneck 14.2274 -12.7848 -4.90105
upperneck -27.939 -15.2288 18.8817
head -9.06243 -9.3518 9.12971
rclavicle -2.38542e-015 5.08889e-014
rhumerus -43.9997 12.4375 -87.8559
rradius 73.0219
rwrist -10.2893
rhand -20.0973 -2.6078
rfingers 7.12502
rthumb 6.24592 -32.4957
lclavicle -2.38542e-015 5.08889e-014
lhumerus -53.305 -1.8373 87.6034
lradius 68.1873
lwrist 44.0703
lhand -17.6397 3.3726
lfingers 7.12502
lthumb 8.61807 33.1767
rfemur -77.1207 0.081199 27.9813
rtibia 65.8736
rfoot -19.0778 -5.70751
rtoes 3.75003
lfemur -76.7354 14.699 -32.786
ltibia 63.5462
lfoot -22.1335 4.29837
ltoes 1.94895
306
root 5.24645 14.9578 -18.1403 37.0424 -39.1727 -6.66935
lowerback 31.887 -3.26096 0.0597636
upperback 4.47264 -3.78322 3.93158
thorax -11.308 -1.76206 5.62996
lowerneck 14.2459 -12.7735 -4.84182
upperneck -27.9833 -15.1951 18.9001
head -9.09061 -9.34696 9.13502
rclavicle -3.81667e-014 6.36111e-015
rhumerus -44.048 12.4256 -87.9274
rradius 72.9314
rwrist -10.119
rhand -20.0152 -2.54422
rfingers 7.12502
rthumb 6.32511 -32.4298
lclavicle -3.81667e-014 6.36111e-015
lhumerus -53.3268 -1.9521 87.5931
lradius 68.0372
lwrist 44.2703
lhand -17.43 3.27195
lfingers 7.12502
lthumb 8.82038 33.0676
rfemur -77.3841 0.106395 27.9637
rtibia 65.9576
rfoot -19.0323 -5.65766
rtoes 3.80152
lfemur -76.9907 14.6565 -32.8741
ltibia 63.6367
lfoot -22.1213 4.35071
ltoes 2.01112
307
root 5.25147 14.9509 -18.1403 37.1828 -39.2583 -6.65836
lowerback 32.0141 -3.2588 0.0557241
upperback 4.51402 -3.78671 3.88575
thorax -11.3157 -1.76469 5.58825
lowerneck 14.2594 -12.7644 -4.79225
upperneck -28.0302 -15.1643 18.9291
head -9.11626 -9.34406 9.14504
rclavicle 8.0309e-014 -9.62118e-014
rhumerus -44.0952 12.4162 -87.9908
rradius 72.8525
rwrist -9.95139
rhand -19.936 -2.48724
rfingers 7.12502
rthumb 6.40159 -32.3705
lclavicle 8.0309e-014 -9.62118e-014
lhumerus -53.3342 -2.07138 87.5745
lradius 67.9031
lwrist 44.4795
lhand -17.2209 3.1963
lfingers 7.12502
lthumb 9.02223 32.9834
rfemur -77.6248 0.136471 27.9383
rtibia 66.0427
rfoot -18.9929 -5.61743
rtoes 3.83222
lfemur -77.222 14.6201 -32.9578
ltibia 63.728
lfoot -22.1155 4.39582
ltoes 2.09852
308
root 5.25579 14.9443 -18.1394 37.3005 -39.3373 -6.64342
lowerback 32.1218 -3.25969 0.0577207
upperback 4.56052 -3.79237 3.84313
thorax -11.3094 -1.76902 5.54619
lowerneck 14.2721 -12.7567 -4.7564
upperneck -28.0856 -15.1347 18.974
head -9.14144 -9.34282 9.16322
rclavicle 2.38542e-015 -1.59028e-014
rhumerus -44.1437 12.4137 -88.0436
rradius 72.7896
rwrist -9.80057
rhand -19.8447 -2.44001
rfingers 7.12502
rthumb 6.4897 -32.3206
lclavicle 2.38542e-015 -1.59028e-014
lhumerus -53.332 -2.18472 87.5482
lradius 67.7901
lwrist 44.6903
lhand -17.0301 3.14792
lfingers 7.12502
lthumb 9.20635 32.9269
rfemur -77.8383 0.158842 27.9103
rtibia 66.1271
rfoot -18.9606 -5.57621
rtoes 3.87549
lfemur -77.4242 14.5839 -33.0344
ltibia 63.8184
lfoot -22.1141 4.43436
ltoes 2.19005
309
root 5.25932 14.9382 -18.1376 37.3918 -39.4076 -6.6234
lowerback 32.2212 -3.26596 0.0572444
upperback 4.60998 -3.80507 3.80825
thorax -11.2951 -1.77671 5.51583
lowerneck 14.2843 -12.7469 -4.74043
upperneck -28.1482 -15.1035 19.035
head -9.16558 -9.3413 9.19029
rclavicle -2.70347e-014 -8.5875e-014
rhumerus -44.1979 12.428 -88.0852
rradius 72.7466
rwrist -9.68935
rhand -19.7459 -2.40158
rfingers 7.12502
rthumb 6.58508 -32.2792
lclavicle -2.70347e-014 -8.5875e-014
lhumerus -53.3233 -2.26142 87.5113
lradius 67.6898
lwrist 44.8822
lhand -16.8341 3.10572
lfingers 7.12502
lthumb 9.39545 32.8763
rfemur -78.019 0.169466 27.8816
rtibia 66.2075
rfoot -18.933 -5.53201
rtoes 3.93195
lfemur -77.5916 14.5477 -33.1039
ltibia 63.9039
lfoot -22.1149 4.47715
ltoes 2.24441
310
root 5.26193 14.9331 -18.1351 37.4569 -39.4659 -6.60691
lowerback 32.3223 -3.27509 0.059459
upperback 4.66271 -3.81976 3.7807
thorax -11.2775 -1.78557 5.4926
lowerneck 14.2925 -12.7411 -4.727
upperneck -28.2156 -15.0766 19.1033
head -9.189 -9.34276 9.22052
rclavicle 1.82882e-014 -5.40694e-014
rhumerus -44.257 12.4443 -88.1167
rradius 72.7205
rwrist -9.62676
rhand -19.6484 -2.37332
rfingers 7.12502
rthumb 6.6792 -32.248
lclavicle 1.82882e-014 -5.40694e-014
lhumerus -53.3092 -2.31885 87.4689
lradius 67.6052
lwrist 45.0586
lhand -16.6621 3.06729
lfingers 7.12502
lthumb 9.56135 32.8303
rfemur -78.157 0.171214 27.8594
rtibia 66.2798
rfoot -18.9112 -5.48277
rtoes 4.00067
lfemur -77.7193 14.5206 -33.16
ltibia 63.9822
lfoot -22.1177 4.51327
ltoes 2.28493
311
root 5.2638 14.9291 -18.1319 37.4992 -39.5128 -6.59308
lowerback 32.4238 -3.28629 0.0653779
upperback 4.71638 -3.83497 3.76069
thorax -11.2585 -1.79484 5.47569
lowerneck 14.2985 -12.7387 -4.7137
upperneck -28.286 -15.054 19.1744
head -9.21218 -9.34665 9.25207
rclavicle 6.59965e-014 -8.11041e-014
rhumerus -44.3226 12.4512 -88.1349
rradius 72.7112
rwrist -9.61615
rhand -19.5511 -2.35422
rfingers 7.12502
rthumb 6.77314 -32.2259
lclavicle 6.59965e-014 -8.11041e-014
lhumerus -53.2849 -2.34537 87.4212
lradius 67.5191
lwrist 45.2008
lhand -16.5113 3.01359
lfingers 7.12502
lthumb 9.70686 32.7699
rfemur -78.2551 0.163275 27.8428
rtibia 66.3411
rfoot -18.8941 -5.42799
rtoes 4.07728
lfemur -77.8085 14.4999 -33.2044
ltibia 64.0487
lfoot -22.1237 4.54822
ltoes 2.31374
312
root 5.26467 14.9265 -18.1282 37.521 -39.5464 -6.58516
lowerback 32.5295 -3.29755 0.074914
upperback 4.76915 -3.84799 3.74851
thorax -11.2422 -1.80313 5.46475
lowerneck 14.3006 -12.7379 -4.69509
upperneck -28.3533 -15.0327 19.2436
head -9.23415 -9.35121 9.28152
rclavicle 1.11319e-014 -4.53229e-014
rhumerus -44.3931 12.4431 -88.1413
rradius 72.712
rwrist -9.65489
rhand -19.4658 -2.33729
rfingers 7.12502
rthumb 6.85554 -32.2063
lclavicle 1.11319e-014 -4.53229e-014
lhumerus -53.252 -2.34704 87.3691
lradius 67.428
lwrist 45.3007
lhand -16.3754 2.93498
lfingers 7.12502
lthumb 9.838 32.6851
rfemur -78.3108 0.150187 27.834
rtibia 66.3882
rfoot -18.8835 -5.37431
rtoes 4.1486
lfemur -77.8576 14.4868 -33.2315
ltibia 64.1011
lfoot -22.1336 4.57532
ltoes 2.35003
313
root 5.26459 14.9253 -18.1241 37.5206 -39.5671 -6.58036
lowerback 32.6404 -3.30769 0.0872154
upperback 4.82135 -3.85765 3.74383
thorax -11.2285 -1.8099 5.45948
lowerneck 14.2968 -12.7383 -4.6719
upperneck -28.4131 -15.0124 19.309
head -9.25309 -9.35589 9.30759
rclavicle -2.94201e-014 -1.98785e-014
rhumerus -44.4631 12.4157 -88.1332
rradius 72.7161
rwrist -9.72244
rhand -19.3871 -2.31191
rfingers 7.12502
rthumb 6.93147 -32.1784
lclavicle -2.94201e-014 -1.98785e-014
lhumerus -53.2094 -2.33815 87.3189
lradius 67.3328
lwrist 45.3555
lhand -16.2548 2.83883
lfingers 7.12502
lthumb 9.95437 32.5835
rfemur -78.3235 0.130824 27.8316
rtibia 66.4203
rfoot -18.879 -5.32565
rtoes 4.20507
lfemur -77.8647 14.4813 -33.2441
ltibia 64.1369
lfoot -22.148 4.5942
ltoes 2.39482
